<mxfile host="app.diagrams.net" agent="Mozilla/5.0 (Windows NT 10.0; Win64; x64) AppleWebKit/537.36 (KHTML, like Gecko) Chrome/130.0.0.0 Safari/537.36" version="24.8.4">
  <diagram name="第 1 页" id="oCN8prpXSGl3xnBSiEb_">
    <mxGraphModel dx="1434" dy="746" grid="1" gridSize="10" guides="1" tooltips="1" connect="1" arrows="1" fold="1" page="1" pageScale="1" pageWidth="827" pageHeight="1169" math="0" shadow="0">
      <root>
        <mxCell id="0" />
        <mxCell id="1" parent="0" />
        <mxCell id="uu2VKMxBFLiMerYdurYF-14" value="" style="rounded=0;whiteSpace=wrap;html=1;fillColor=none;strokeColor=#002954;dashed=1;strokeWidth=2;" vertex="1" parent="1">
          <mxGeometry x="110" y="290" width="300" height="120" as="geometry" />
        </mxCell>
        <mxCell id="uu2VKMxBFLiMerYdurYF-1" value="" style="rounded=1;whiteSpace=wrap;html=1;strokeColor=#002954;strokeWidth=2;" vertex="1" parent="1">
          <mxGeometry x="250" y="300" width="150" height="70" as="geometry" />
        </mxCell>
        <mxCell id="uu2VKMxBFLiMerYdurYF-2" value="&lt;font style=&quot;font-size: 16px;&quot;&gt;IoT Access&lt;/font&gt;" style="rounded=1;whiteSpace=wrap;html=1;fillColor=#002954;strokeColor=none;fontColor=#FFFFFF;" vertex="1" parent="1">
          <mxGeometry x="262.5" y="310" width="125" height="50" as="geometry" />
        </mxCell>
        <mxCell id="uu2VKMxBFLiMerYdurYF-4" value="&lt;font style=&quot;font-size: 14px;&quot; color=&quot;#002954&quot;&gt;WiFi Module&lt;/font&gt;" style="text;html=1;align=center;verticalAlign=middle;whiteSpace=wrap;rounded=0;fontStyle=1;fontSize=14;" vertex="1" parent="1">
          <mxGeometry x="275" y="370" width="90" height="30" as="geometry" />
        </mxCell>
        <mxCell id="uu2VKMxBFLiMerYdurYF-5" value="&lt;font style=&quot;font-size: 15px;&quot; color=&quot;#ffffff&quot;&gt;AWS IoT&lt;/font&gt;" style="ellipse;shape=cloud;whiteSpace=wrap;html=1;strokeColor=none;fillColor=#002954;" vertex="1" parent="1">
          <mxGeometry x="240" y="110" width="160" height="90" as="geometry" />
        </mxCell>
        <mxCell id="uu2VKMxBFLiMerYdurYF-6" value="" style="sketch=0;html=1;aspect=fixed;strokeColor=none;shadow=0;fillColor=#002954;verticalAlign=top;labelPosition=center;verticalLabelPosition=bottom;shape=mxgraph.gcp2.phone_android" vertex="1" parent="1">
          <mxGeometry x="540" y="300" width="56" height="100" as="geometry" />
        </mxCell>
        <mxCell id="uu2VKMxBFLiMerYdurYF-7" value="" style="shape=flexArrow;endArrow=classic;startArrow=classic;html=1;rounded=0;strokeColor=none;fillColor=#002954;" edge="1" parent="1" target="uu2VKMxBFLiMerYdurYF-5">
          <mxGeometry width="100" height="100" relative="1" as="geometry">
            <mxPoint x="320" y="290" as="sourcePoint" />
            <mxPoint x="400" y="210" as="targetPoint" />
            <Array as="points">
              <mxPoint x="320" y="240" />
            </Array>
          </mxGeometry>
        </mxCell>
        <mxCell id="uu2VKMxBFLiMerYdurYF-8" value="" style="shape=flexArrow;endArrow=classic;startArrow=classic;html=1;rounded=0;strokeColor=none;fillColor=#002954;exitX=0.554;exitY=-0.04;exitDx=0;exitDy=0;exitPerimeter=0;" edge="1" parent="1" source="uu2VKMxBFLiMerYdurYF-6">
          <mxGeometry width="100" height="100" relative="1" as="geometry">
            <mxPoint x="570" y="290" as="sourcePoint" />
            <mxPoint x="570" y="200" as="targetPoint" />
          </mxGeometry>
        </mxCell>
        <mxCell id="uu2VKMxBFLiMerYdurYF-9" value="&lt;font style=&quot;font-size: 15px;&quot; color=&quot;#ffffff&quot;&gt;Blueair Cloud&lt;/font&gt;" style="ellipse;shape=cloud;whiteSpace=wrap;html=1;strokeColor=none;fillColor=#002954;" vertex="1" parent="1">
          <mxGeometry x="488" y="110" width="160" height="90" as="geometry" />
        </mxCell>
        <mxCell id="uu2VKMxBFLiMerYdurYF-10" value="" style="shape=flexArrow;endArrow=classic;startArrow=classic;html=1;rounded=0;strokeColor=none;fillColor=#002954;" edge="1" parent="1">
          <mxGeometry width="100" height="100" relative="1" as="geometry">
            <mxPoint x="490" y="160" as="sourcePoint" />
            <mxPoint x="400" y="160" as="targetPoint" />
          </mxGeometry>
        </mxCell>
        <mxCell id="uu2VKMxBFLiMerYdurYF-12" value="" style="sketch=0;outlineConnect=0;fontColor=#232F3E;gradientColor=none;fillColor=#002954;strokeColor=none;dashed=0;verticalLabelPosition=bottom;verticalAlign=top;align=center;html=1;fontSize=12;fontStyle=0;aspect=fixed;pointerEvents=1;shape=mxgraph.aws4.iot_thing_freertos_device;" vertex="1" parent="1">
          <mxGeometry x="120" y="305" width="60" height="60" as="geometry" />
        </mxCell>
        <mxCell id="uu2VKMxBFLiMerYdurYF-13" value="&lt;font style=&quot;font-size: 14px;&quot; color=&quot;#002954&quot;&gt;MCU&lt;/font&gt;" style="text;html=1;align=center;verticalAlign=middle;whiteSpace=wrap;rounded=0;fontStyle=1;fontSize=14;" vertex="1" parent="1">
          <mxGeometry x="125" y="365" width="55" height="20" as="geometry" />
        </mxCell>
        <mxCell id="uu2VKMxBFLiMerYdurYF-18" value="" style="shape=flexArrow;endArrow=classic;startArrow=classic;html=1;rounded=0;strokeColor=none;fillColor=#002954;" edge="1" parent="1">
          <mxGeometry width="100" height="100" relative="1" as="geometry">
            <mxPoint x="250" y="334.5" as="sourcePoint" />
            <mxPoint x="180" y="335" as="targetPoint" />
          </mxGeometry>
        </mxCell>
        <mxCell id="uu2VKMxBFLiMerYdurYF-19" value="&lt;font style=&quot;font-size: 14px;&quot; color=&quot;#002954&quot;&gt;UART&lt;/font&gt;" style="text;html=1;align=center;verticalAlign=middle;whiteSpace=wrap;rounded=0;fontStyle=1;fontSize=14;" vertex="1" parent="1">
          <mxGeometry x="185" y="350" width="55" height="20" as="geometry" />
        </mxCell>
        <mxCell id="uu2VKMxBFLiMerYdurYF-20" value="&lt;font style=&quot;font-size: 14px;&quot; color=&quot;#002954&quot;&gt;Air Purifier&lt;/font&gt;" style="text;html=1;align=center;verticalAlign=middle;whiteSpace=wrap;rounded=0;fontStyle=1;fontSize=14;" vertex="1" parent="1">
          <mxGeometry x="200" y="410" width="90" height="30" as="geometry" />
        </mxCell>
      </root>
    </mxGraphModel>
  </diagram>
</mxfile>
